<?xml version="1.0" encoding="us-ascii" standalone="no"?><svg xmlns="http://www.w3.org/2000/svg" xmlns:xlink="http://www.w3.org/1999/xlink" contentStyleType="text/css" height="482px" preserveAspectRatio="none" style="width:1287px;height:482px;background:#FFFFFF;" version="1.1" viewBox="0 0 1287 482" width="1287px" zoomAndPan="magnify"><defs/><g><!--cluster FastFoodStore--><g id="cluster_FastFoodStore"><path d="M8.5,6 L128.5,6 A3.75,3.75 0 0 1 131,8.5 L138,28.2969 L1277.5,28.2969 A2.5,2.5 0 0 1 1280,30.7969 L1280,472.5 A2.5,2.5 0 0 1 1277.5,475 L8.5,475 A2.5,2.5 0 0 1 6,472.5 L6,8.5 A2.5,2.5 0 0 1 8.5,6 " fill="none" style="stroke:#000000;stroke-width:1.5;"/><line style="stroke:#000000;stroke-width:1.5;" x1="6" x2="138" y1="28.2969" y2="28.2969"/><text fill="#000000" font-family="sans-serif" font-size="14" font-weight="bold" lengthAdjust="spacing" textLength="119" x="10" y="20.9951">FastFoodStore</text></g><!--cluster BLL--><g id="cluster_BLL"><path d="M95.5,49 L125.5,49 A3.75,3.75 0 0 1 128,51.5 L135,71.2969 L1253.5,71.2969 A2.5,2.5 0 0 1 1256,73.7969 L1256,448.5 A2.5,2.5 0 0 1 1253.5,451 L95.5,451 A2.5,2.5 0 0 1 93,448.5 L93,51.5 A2.5,2.5 0 0 1 95.5,49 " fill="none" style="stroke:#000000;stroke-width:1.5;"/><line style="stroke:#000000;stroke-width:1.5;" x1="93" x2="135" y1="71.2969" y2="71.2969"/><text fill="#000000" font-family="sans-serif" font-size="14" font-weight="bold" lengthAdjust="spacing" textLength="29" x="97" y="63.9951">BLL</text></g><!--cluster MappersBLL--><g id="cluster_MappersBLL"><path d="M530.5,97.5 L629.5,97.5 A3.75,3.75 0 0 1 632,100 L639,119.7969 L1229.5,119.7969 A2.5,2.5 0 0 1 1232,122.2969 L1232,227 A2.5,2.5 0 0 1 1229.5,229.5 L530.5,229.5 A2.5,2.5 0 0 1 528,227 L528,100 A2.5,2.5 0 0 1 530.5,97.5 " fill="none" style="stroke:#000000;stroke-width:1.5;"/><line style="stroke:#000000;stroke-width:1.5;" x1="528" x2="639" y1="119.7969" y2="119.7969"/><text fill="#000000" font-family="sans-serif" font-size="14" font-weight="bold" lengthAdjust="spacing" textLength="98" x="532" y="112.4951">MappersBLL</text></g><path d="M25,146.5 L57,146.5 A3.75,3.75 0 0 1 59.5,149 L66.5,168.7969 L71,168.7969 A2.5,2.5 0 0 1 73.5,171.2969 L73.5,196.5938 A2.5,2.5 0 0 1 71,199.0938 L25,199.0938 A2.5,2.5 0 0 1 22.5,196.5938 L22.5,149 A2.5,2.5 0 0 1 25,146.5 " fill="#F1F1F1" style="stroke:#181818;stroke-width:0.5;"/><line style="stroke:#181818;stroke-width:0.5;" x1="22.5" x2="66.5" y1="168.7969" y2="168.7969"/><text fill="#000000" font-family="sans-serif" font-size="14" font-weight="bold" lengthAdjust="spacing" textLength="31" x="26.5" y="161.4951">DAL</text><!--class SourceData--><g id="elem_SourceData"><rect codeLine="16" fill="#F1F1F1" height="113.1875" id="SourceData" rx="2.5" ry="2.5" style="stroke:#181818;stroke-width:0.5;" width="712" x="109" y="322"/><ellipse cx="419.25" cy="338" fill="#ADD1B2" rx="11" ry="11" style="stroke:#181818;stroke-width:1.0;"/><path d="M421.5938,333.6719 C420.6563,333.2344 420.0625,333.0938 419.1875,333.0938 C416.5625,333.0938 414.5625,335.1719 414.5625,337.8906 L414.5625,339.0156 C414.5625,341.5938 416.6719,343.4844 419.5625,343.4844 C420.7813,343.4844 421.9375,343.1875 422.6875,342.6406 C423.2656,342.2344 423.5938,341.7813 423.5938,341.3906 C423.5938,340.9375 423.2031,340.5469 422.7344,340.5469 C422.5156,340.5469 422.3125,340.625 422.125,340.8125 C421.6719,341.2969 421.6719,341.2969 421.4844,341.3906 C421.0625,341.6563 420.375,341.7813 419.6094,341.7813 C417.5625,341.7813 416.2656,340.6875 416.2656,338.9844 L416.2656,337.8906 C416.2656,336.1094 417.5156,334.7969 419.25,334.7969 C419.8281,334.7969 420.4375,334.9531 420.9063,335.2031 C421.3906,335.4844 421.5625,335.7031 421.6563,336.1094 C421.7188,336.5156 421.75,336.6406 421.8906,336.7656 C422.0313,336.9063 422.2656,337.0156 422.4844,337.0156 C422.75,337.0156 423.0156,336.875 423.1875,336.6563 C423.2969,336.5 423.3281,336.3125 423.3281,335.8906 L423.3281,334.4688 C423.3281,334.0313 423.3125,333.9063 423.2188,333.75 C423.0625,333.4844 422.7813,333.3438 422.4844,333.3438 C422.1875,333.3438 421.9844,333.4375 421.7656,333.75 L421.5938,333.6719 Z " fill="#000000"/><text fill="#000000" font-family="sans-serif" font-size="14" lengthAdjust="spacing" textLength="83" x="439.75" y="342.8467">SourceData</text><line style="stroke:#181818;stroke-width:0.5;" x1="110" x2="820" y1="354" y2="354"/><text fill="#000000" font-family="sans-serif" font-size="14" lengthAdjust="spacing" textLength="553" x="115" y="370.9951">private readonly ContextDataObjectsSqliteDB contextDataObjectsSqliteDB;</text><line style="stroke:#181818;stroke-width:0.5;" x1="110" x2="820" y1="378.2969" y2="378.2969"/><text fill="#000000" font-family="sans-serif" font-size="14" lengthAdjust="spacing" textLength="141" x="115" y="395.292">public SourceData()</text><text fill="#000000" font-family="sans-serif" font-size="14" lengthAdjust="spacing" textLength="520" x="115" y="411.5889">public IEnumerable&lt;BLL.Models.ProductMBLL&gt; GetAllProductsFromDB()</text><text fill="#000000" font-family="sans-serif" font-size="14" lengthAdjust="spacing" textLength="700" x="115" y="427.8857">public bool UpdatePurchasedCountProductsInDataSource(BLL.Models.ProductMBLL productMBLL)</text></g><!--class ProductMBLL--><g id="elem_ProductMBLL"><rect codeLine="25" fill="#F1F1F1" height="178.375" id="ProductMBLL" rx="2.5" ry="2.5" style="stroke:#181818;stroke-width:0.5;" width="400" x="109" y="84"/><ellipse cx="257.75" cy="100" fill="#ADD1B2" rx="11" ry="11" style="stroke:#181818;stroke-width:1.0;"/><path d="M260.0938,95.6719 C259.1563,95.2344 258.5625,95.0938 257.6875,95.0938 C255.0625,95.0938 253.0625,97.1719 253.0625,99.8906 L253.0625,101.0156 C253.0625,103.5938 255.1719,105.4844 258.0625,105.4844 C259.2813,105.4844 260.4375,105.1875 261.1875,104.6406 C261.7656,104.2344 262.0938,103.7813 262.0938,103.3906 C262.0938,102.9375 261.7031,102.5469 261.2344,102.5469 C261.0156,102.5469 260.8125,102.625 260.625,102.8125 C260.1719,103.2969 260.1719,103.2969 259.9844,103.3906 C259.5625,103.6563 258.875,103.7813 258.1094,103.7813 C256.0625,103.7813 254.7656,102.6875 254.7656,100.9844 L254.7656,99.8906 C254.7656,98.1094 256.0156,96.7969 257.75,96.7969 C258.3281,96.7969 258.9375,96.9531 259.4063,97.2031 C259.8906,97.4844 260.0625,97.7031 260.1563,98.1094 C260.2188,98.5156 260.25,98.6406 260.3906,98.7656 C260.5313,98.9063 260.7656,99.0156 260.9844,99.0156 C261.25,99.0156 261.5156,98.875 261.6875,98.6563 C261.7969,98.5 261.8281,98.3125 261.8281,97.8906 L261.8281,96.4688 C261.8281,96.0313 261.8125,95.9063 261.7188,95.75 C261.5625,95.4844 261.2813,95.3438 260.9844,95.3438 C260.6875,95.3438 260.4844,95.4375 260.2656,95.75 L260.0938,95.6719 Z " fill="#000000"/><text fill="#000000" font-family="sans-serif" font-size="14" lengthAdjust="spacing" textLength="94" x="278.25" y="104.8467">ProductMBLL</text><line style="stroke:#181818;stroke-width:0.5;" x1="110" x2="508" y1="116" y2="116"/><text fill="#000000" font-family="sans-serif" font-size="14" lengthAdjust="spacing" textLength="271" x="115" y="132.9951">public int ProductMBLLId { get; set; }</text><text fill="#000000" font-family="sans-serif" font-size="14" lengthAdjust="spacing" textLength="320" x="115" y="149.292">public string MBLL_Product_Tag { get; set; }</text><text fill="#000000" font-family="sans-serif" font-size="14" lengthAdjust="spacing" textLength="388" x="115" y="165.5889">public int MBLL_Product_PurchasedCount { get; set; }</text><text fill="#000000" font-family="sans-serif" font-size="14" lengthAdjust="spacing" textLength="371" x="115" y="181.8857">public string MBLL_Product_ImagePath { get; set; }</text><text fill="#000000" font-family="sans-serif" font-size="14" lengthAdjust="spacing" textLength="335" x="115" y="198.1826">public string MBLL_Product_Name { get; set; }</text><text fill="#000000" font-family="sans-serif" font-size="14" lengthAdjust="spacing" textLength="385" x="115" y="214.4795">public string MBLL_Product_Descriptiont { get; set; }</text><text fill="#000000" font-family="sans-serif" font-size="14" lengthAdjust="spacing" textLength="337" x="115" y="230.7764">public double MBLL_Product_Price { get; set; }</text><text fill="#000000" font-family="sans-serif" font-size="14" lengthAdjust="spacing" textLength="374" x="115" y="247.0732">public bool MBLL_Product_IsAvailability { get; set; }</text><line style="stroke:#181818;stroke-width:0.5;" x1="110" x2="508" y1="254.375" y2="254.375"/></g><!--class MapperProduct--><g id="elem_MapperProduct"><rect codeLine="7" fill="#F1F1F1" height="80.5938" id="MapperProduct" rx="2.5" ry="2.5" style="stroke:#181818;stroke-width:0.5;" width="671" x="544.5" y="132.5"/><ellipse cx="820.25" cy="148.5" fill="#ADD1B2" rx="11" ry="11" style="stroke:#181818;stroke-width:1.0;"/><path d="M822.5938,144.1719 C821.6563,143.7344 821.0625,143.5938 820.1875,143.5938 C817.5625,143.5938 815.5625,145.6719 815.5625,148.3906 L815.5625,149.5156 C815.5625,152.0938 817.6719,153.9844 820.5625,153.9844 C821.7813,153.9844 822.9375,153.6875 823.6875,153.1406 C824.2656,152.7344 824.5938,152.2813 824.5938,151.8906 C824.5938,151.4375 824.2031,151.0469 823.7344,151.0469 C823.5156,151.0469 823.3125,151.125 823.125,151.3125 C822.6719,151.7969 822.6719,151.7969 822.4844,151.8906 C822.0625,152.1563 821.375,152.2813 820.6094,152.2813 C818.5625,152.2813 817.2656,151.1875 817.2656,149.4844 L817.2656,148.3906 C817.2656,146.6094 818.5156,145.2969 820.25,145.2969 C820.8281,145.2969 821.4375,145.4531 821.9063,145.7031 C822.3906,145.9844 822.5625,146.2031 822.6563,146.6094 C822.7188,147.0156 822.75,147.1406 822.8906,147.2656 C823.0313,147.4063 823.2656,147.5156 823.4844,147.5156 C823.75,147.5156 824.0156,147.375 824.1875,147.1563 C824.2969,147 824.3281,146.8125 824.3281,146.3906 L824.3281,144.9688 C824.3281,144.5313 824.3125,144.4063 824.2188,144.25 C824.0625,143.9844 823.7813,143.8438 823.4844,143.8438 C823.1875,143.8438 822.9844,143.9375 822.7656,144.25 L822.5938,144.1719 Z " fill="#000000"/><text fill="#000000" font-family="sans-serif" font-size="14" lengthAdjust="spacing" textLength="111" x="840.75" y="153.3467">MapperProduct</text><line style="stroke:#181818;stroke-width:0.5;" x1="545.5" x2="1214.5" y1="164.5" y2="164.5"/><line style="stroke:#181818;stroke-width:0.5;" x1="545.5" x2="1214.5" y1="172.5" y2="172.5"/><text fill="#000000" font-family="sans-serif" font-size="14" lengthAdjust="spacing" textLength="638" x="550.5" y="189.4951">public static BLL.Models.ProductMBLL MapProductUp(DAL.Models.ProductMDAL Product)</text><text fill="#000000" font-family="sans-serif" font-size="14" lengthAdjust="spacing" textLength="659" x="550.5" y="205.792">public static DAL.Models.ProductMDAL MapProductDown(BLL.Models.ProductMBLL Product)</text></g><!--link DAL to SourceData--><g id="link_DAL_SourceData"><path codeLine="1" d="M57.1084,205.5226 C63.8311,225.1926 73.8317,245.869 93,262 C122.622,286.928 146.5382,301.8291 182.9942,317.1681 " fill="none" id="DAL-SourceData" style="stroke:#181818;stroke-width:1.0;"/><polygon fill="#181818" points="55.168,199.845,54.2936,209.655,56.785,204.5763,61.8637,207.0677,55.168,199.845" style="stroke:#181818;stroke-width:1.0;"/><polygon fill="#181818" points="194.055,321.822,190.0759,315.8081,182.9942,317.1681,186.9733,323.182,194.055,321.822" style="stroke:#181818;stroke-width:1.0;"/></g><!--link ProductMBLL to SourceData--><g id="link_ProductMBLL_SourceData"><path codeLine="2" d="M380.1672,266.8359 C395.7302,287.1389 400.9093,293.8943 415.0673,312.3633 " fill="none" id="ProductMBLL-SourceData" style="stroke:#181818;stroke-width:1.0;"/><polygon fill="#181818" points="376.517,262.074,378.8177,271.6504,379.5588,266.0423,385.1669,266.7834,376.517,262.074" style="stroke:#181818;stroke-width:1.0;"/><polygon fill="#181818" points="422.368,321.887,421.8922,314.6916,415.0673,312.3633,415.5431,319.5587,422.368,321.887" style="stroke:#181818;stroke-width:1.0;"/></g><!--link MapperProduct to SourceData--><g id="link_MapperProduct_SourceData"><path codeLine="3" d="M793.6118,216.3617 C730.7488,247.1877 658.9983,282.3706 589.1463,316.6236 " fill="none" id="MapperProduct-SourceData" style="stroke:#181818;stroke-width:1.0;"/><polygon fill="#181818" points="798.999,213.72,789.1571,214.0911,794.5097,215.9214,792.6794,221.274,798.999,213.72" style="stroke:#181818;stroke-width:1.0;"/><polygon fill="#181818" points="578.372,321.907,585.5203,322.8568,589.1463,316.6236,581.998,315.6739,578.372,321.907" style="stroke:#181818;stroke-width:1.0;"/></g><!--SRC=[dLFHRe9047pdA_PHc-WFQ9geb8P4MnFhircE3LvxSlHkiJN6V-zXQHMGQCi3jzpDxEnCZW0j1rh72zQ6-lve2iDUxmw2olPuEkqlT6u4-SZeDG_dHiUvu9ch_yMVOPQHiQUoR7X3Coz3yOO9rL3EoVxWUKAXjN2xeBVte7ooF59IW6LajnoHEYPbAsOTkVnSPXsdMSSKWPPrjwLp2-lKsTSVQQT5_xUty-grsptBwyoWaLja0aCOwrJjOA9JfaykOC_HAmcsYtSbcVmnYDQZWLVtTHBhT8lj-dduaEORCXWf6bwsTG-Fn2EboYqR6Btnnvr6Wf7M2fPPx5pCdUOQBSKJdQVyGmpJOeplWTeYp4xrCKQ0jXJFM0xLk2aoPJY3X37i8I4UW2rUXsOGberC4oZ0gvAuUi6aHhiaKw5KhLVPjqY66_Vxp97NLuGlSPzmGtzNzCaA8pEM-jgyiNOhrVmQAUZAhCURKNLfHrkK2YFfxktk4ltm1G00]--></g></svg>