<?xml version="1.0" encoding="us-ascii" standalone="no"?><svg xmlns="http://www.w3.org/2000/svg" xmlns:xlink="http://www.w3.org/1999/xlink" contentStyleType="text/css" height="686px" preserveAspectRatio="none" style="width:2084px;height:686px;background:#FFFFFF;" version="1.1" viewBox="0 0 2084 686" width="2084px" zoomAndPan="magnify"><defs/><g><!--cluster Microsoft--><g id="cluster_Microsoft"><path d="M1093.5,6 L1173.5,6 A3.75,3.75 0 0 1 1176,8.5 L1183,28.2969 L1841.5,28.2969 A2.5,2.5 0 0 1 1844,30.7969 L1844,252.5 A2.5,2.5 0 0 1 1841.5,255 L1093.5,255 A2.5,2.5 0 0 1 1091,252.5 L1091,8.5 A2.5,2.5 0 0 1 1093.5,6 " fill="none" style="stroke:#000000;stroke-width:1.5;"/><line style="stroke:#000000;stroke-width:1.5;" x1="1091" x2="1183" y1="28.2969" y2="28.2969"/><text fill="#000000" font-family="sans-serif" font-size="14" font-weight="bold" lengthAdjust="spacing" textLength="79" x="1095" y="20.9951">Microsoft</text></g><!--cluster EntityFrameworkCore--><g id="cluster_EntityFrameworkCore"><path d="M1117.5,49 L1292.5,49 A3.75,3.75 0 0 1 1295,51.5 L1302,71.2969 L1817.5,71.2969 A2.5,2.5 0 0 1 1820,73.7969 L1820,228.5 A2.5,2.5 0 0 1 1817.5,231 L1117.5,231 A2.5,2.5 0 0 1 1115,228.5 L1115,51.5 A2.5,2.5 0 0 1 1117.5,49 " fill="none" style="stroke:#000000;stroke-width:1.5;"/><line style="stroke:#000000;stroke-width:1.5;" x1="1115" x2="1302" y1="71.2969" y2="71.2969"/><text fill="#000000" font-family="sans-serif" font-size="14" font-weight="bold" lengthAdjust="spacing" textLength="174" x="1119" y="63.9951">EntityFrameworkCore</text></g><!--cluster Design--><g id="cluster_Design"><path d="M1264.5,92 L1319.5,92 A3.75,3.75 0 0 1 1322,94.5 L1329,114.2969 L1793.5,114.2969 A2.5,2.5 0 0 1 1796,116.7969 L1796,204.5 A2.5,2.5 0 0 1 1793.5,207 L1264.5,207 A2.5,2.5 0 0 1 1262,204.5 L1262,94.5 A2.5,2.5 0 0 1 1264.5,92 " fill="none" style="stroke:#000000;stroke-width:1.5;"/><line style="stroke:#000000;stroke-width:1.5;" x1="1262" x2="1329" y1="114.2969" y2="114.2969"/><text fill="#000000" font-family="sans-serif" font-size="14" font-weight="bold" lengthAdjust="spacing" textLength="54" x="1266" y="106.9951">Design</text></g><!--cluster FastFoodStore--><g id="cluster_FastFoodStore"><path d="M8.5,279 L128.5,279 A3.75,3.75 0 0 1 131,281.5 L138,301.2969 L2074.5,301.2969 A2.5,2.5 0 0 1 2077,303.7969 L2077,677 A2.5,2.5 0 0 1 2074.5,679.5 L8.5,679.5 A2.5,2.5 0 0 1 6,677 L6,281.5 A2.5,2.5 0 0 1 8.5,279 " fill="none" style="stroke:#000000;stroke-width:1.5;"/><line style="stroke:#000000;stroke-width:1.5;" x1="6" x2="138" y1="301.2969" y2="301.2969"/><text fill="#000000" font-family="sans-serif" font-size="14" font-weight="bold" lengthAdjust="spacing" textLength="119" x="10" y="293.9951">FastFoodStore</text></g><!--cluster DAL--><g id="cluster_DAL"><path d="M32.5,322 L64.5,322 A3.75,3.75 0 0 1 67,324.5 L74,344.2969 L2050.5,344.2969 A2.5,2.5 0 0 1 2053,346.7969 L2053,653 A2.5,2.5 0 0 1 2050.5,655.5 L32.5,655.5 A2.5,2.5 0 0 1 30,653 L30,324.5 A2.5,2.5 0 0 1 32.5,322 " fill="none" style="stroke:#000000;stroke-width:1.5;"/><line style="stroke:#000000;stroke-width:1.5;" x1="30" x2="74" y1="344.2969" y2="344.2969"/><text fill="#000000" font-family="sans-serif" font-size="14" font-weight="bold" lengthAdjust="spacing" textLength="31" x="34" y="336.9951">DAL</text></g><!--cluster DB--><g id="cluster_DB"><path d="M516.5,365 L539.5,365 A3.75,3.75 0 0 1 542,367.5 L549,387.2969 L2026.5,387.2969 A2.5,2.5 0 0 1 2029,389.7969 L2029,628.5 A2.5,2.5 0 0 1 2026.5,631 L516.5,631 A2.5,2.5 0 0 1 514,628.5 L514,367.5 A2.5,2.5 0 0 1 516.5,365 " fill="none" style="stroke:#000000;stroke-width:1.5;"/><line style="stroke:#000000;stroke-width:1.5;" x1="514" x2="549" y1="387.2969" y2="387.2969"/><text fill="#000000" font-family="sans-serif" font-size="14" font-weight="bold" lengthAdjust="spacing" textLength="22" x="518" y="379.9951">DB</text></g><!--cluster Providers--><g id="cluster_Providers"><path d="M540.5,408 L617.5,408 A3.75,3.75 0 0 1 620,410.5 L627,430.2969 L2002.5,430.2969 A2.5,2.5 0 0 1 2005,432.7969 L2005,604.5 A2.5,2.5 0 0 1 2002.5,607 L540.5,607 A2.5,2.5 0 0 1 538,604.5 L538,410.5 A2.5,2.5 0 0 1 540.5,408 " fill="none" style="stroke:#000000;stroke-width:1.5;"/><line style="stroke:#000000;stroke-width:1.5;" x1="538" x2="627" y1="430.2969" y2="430.2969"/><text fill="#000000" font-family="sans-serif" font-size="14" font-weight="bold" lengthAdjust="spacing" textLength="76" x="542" y="422.9951">Providers</text></g><!--cluster Sqlite--><g id="cluster_Sqlite"><path d="M564.5,451 L612.5,451 A3.75,3.75 0 0 1 615,453.5 L622,473.2969 L1978.5,473.2969 A2.5,2.5 0 0 1 1981,475.7969 L1981,580.5 A2.5,2.5 0 0 1 1978.5,583 L564.5,583 A2.5,2.5 0 0 1 562,580.5 L562,453.5 A2.5,2.5 0 0 1 564.5,451 " fill="none" style="stroke:#000000;stroke-width:1.5;"/><line style="stroke:#000000;stroke-width:1.5;" x1="562" x2="622" y1="473.2969" y2="473.2969"/><text fill="#000000" font-family="sans-serif" font-size="14" font-weight="bold" lengthAdjust="spacing" textLength="47" x="566" y="465.9951">Sqlite</text></g><!--cluster Models--><g id="cluster_Models"><path d="M56.5,402.5 L114.5,402.5 A3.75,3.75 0 0 1 117,405 L124,424.7969 L487.5,424.7969 A2.5,2.5 0 0 1 490,427.2969 L490,629 A2.5,2.5 0 0 1 487.5,631.5 L56.5,631.5 A2.5,2.5 0 0 1 54,629 L54,405 A2.5,2.5 0 0 1 56.5,402.5 " fill="none" style="stroke:#000000;stroke-width:1.5;"/><line style="stroke:#000000;stroke-width:1.5;" x1="54" x2="124" y1="424.7969" y2="424.7969"/><text fill="#000000" font-family="sans-serif" font-size="14" font-weight="bold" lengthAdjust="spacing" textLength="57" x="58" y="417.4951">Models</text></g><!--entity DBSettingsConnection--><g id="elem_DBSettingsConnection"><rect fill="#F1F1F1" height="36.2969" rx="2.5" ry="2.5" style="stroke:#181818;stroke-width:0.5;" width="185" x="889.5" y="141"/><text fill="#000000" font-family="sans-serif" font-size="14" lengthAdjust="spacing" textLength="165" x="899.5" y="163.9951">DBSettingsConnection</text></g><!--class DbContext--><g id="elem_DbContext"><rect codeLine="20" fill="#F1F1F1" height="48" id="DbContext" rx="2.5" ry="2.5" style="stroke:#181818;stroke-width:0.5;" width="112" x="1131" y="135"/><ellipse cx="1146" cy="151" fill="#ADD1B2" rx="11" ry="11" style="stroke:#181818;stroke-width:1.0;"/><path d="M1148.3438,146.6719 C1147.4063,146.2344 1146.8125,146.0938 1145.9375,146.0938 C1143.3125,146.0938 1141.3125,148.1719 1141.3125,150.8906 L1141.3125,152.0156 C1141.3125,154.5938 1143.4219,156.4844 1146.3125,156.4844 C1147.5313,156.4844 1148.6875,156.1875 1149.4375,155.6406 C1150.0156,155.2344 1150.3438,154.7813 1150.3438,154.3906 C1150.3438,153.9375 1149.9531,153.5469 1149.4844,153.5469 C1149.2656,153.5469 1149.0625,153.625 1148.875,153.8125 C1148.4219,154.2969 1148.4219,154.2969 1148.2344,154.3906 C1147.8125,154.6563 1147.125,154.7813 1146.3594,154.7813 C1144.3125,154.7813 1143.0156,153.6875 1143.0156,151.9844 L1143.0156,150.8906 C1143.0156,149.1094 1144.2656,147.7969 1146,147.7969 C1146.5781,147.7969 1147.1875,147.9531 1147.6563,148.2031 C1148.1406,148.4844 1148.3125,148.7031 1148.4063,149.1094 C1148.4688,149.5156 1148.5,149.6406 1148.6406,149.7656 C1148.7813,149.9063 1149.0156,150.0156 1149.2344,150.0156 C1149.5,150.0156 1149.7656,149.875 1149.9375,149.6563 C1150.0469,149.5 1150.0781,149.3125 1150.0781,148.8906 L1150.0781,147.4688 C1150.0781,147.0313 1150.0625,146.9063 1149.9688,146.75 C1149.8125,146.4844 1149.5313,146.3438 1149.2344,146.3438 C1148.9375,146.3438 1148.7344,146.4375 1148.5156,146.75 L1148.3438,146.6719 Z " fill="#000000"/><text fill="#000000" font-family="sans-serif" font-size="14" lengthAdjust="spacing" textLength="80" x="1160" y="155.8467">DbContext</text><line style="stroke:#181818;stroke-width:0.5;" x1="1132" x2="1242" y1="167" y2="167"/><line style="stroke:#181818;stroke-width:0.5;" x1="1132" x2="1242" y1="175" y2="175"/></g><!--class IDesignTimeDbContextFactory--><g id="elem_IDesignTimeDbContextFactory"><rect codeLine="7" fill="#F1F1F1" height="64.2969" id="IDesignTimeDbContextFactory" rx="2.5" ry="2.5" style="stroke:#181818;stroke-width:0.5;" width="501" x="1278.5" y="127"/><ellipse cx="1416.25" cy="143" fill="#B4A7E5" rx="11" ry="11" style="stroke:#181818;stroke-width:1.0;"/><path d="M1417.2031,139.7813 L1418.9219,139.7813 C1419.3125,139.7813 1419.5,139.75 1419.625,139.6719 C1419.8906,139.5156 1420.0313,139.2344 1420.0313,138.9375 C1420.0313,138.6719 1419.9219,138.4063 1419.6875,138.2344 C1419.5156,138.125 1419.375,138.0938 1418.9219,138.0938 L1413.7813,138.0938 C1413.3438,138.0938 1413.2188,138.1094 1413.0625,138.2031 C1412.8125,138.3594 1412.6563,138.6563 1412.6563,138.9375 C1412.6563,139.2188 1412.7969,139.4688 1413.0156,139.6406 C1413.1719,139.75 1413.3594,139.7813 1413.7813,139.7813 L1415.5,139.7813 L1415.5,146.2969 L1413.7813,146.2969 C1413.3438,146.2969 1413.2188,146.3125 1413.0625,146.4219 C1412.8125,146.5781 1412.6563,146.8594 1412.6563,147.1563 C1412.6563,147.4063 1412.7969,147.6719 1413.0156,147.8281 C1413.1719,147.9531 1413.375,148 1413.7813,148 L1418.9219,148 C1419.6719,148 1420.0313,147.7188 1420.0313,147.1563 C1420.0313,146.875 1419.9219,146.625 1419.6875,146.4531 C1419.5156,146.3281 1419.375,146.2969 1418.9219,146.2969 L1417.2031,146.2969 L1417.2031,139.7813 Z " fill="#000000"/><text fill="#000000" font-family="sans-serif" font-size="14" font-style="italic" lengthAdjust="spacing" textLength="217" x="1436.75" y="147.8467">IDesignTimeDbContextFactory</text><line style="stroke:#181818;stroke-width:0.5;" x1="1279.5" x2="1778.5" y1="159" y2="159"/><line style="stroke:#181818;stroke-width:0.5;" x1="1279.5" x2="1778.5" y1="167" y2="167"/><text fill="#000000" font-family="sans-serif" font-size="14" lengthAdjust="spacing" textLength="489" x="1284.5" y="183.9951">public ContextDataObjectsSqliteDB CreateDbContext(string[] args)</text></g><!--class FactoryContextDataObjectsSqliteDB--><g id="elem_FactoryContextDataObjectsSqliteDB"><rect codeLine="12" fill="#F1F1F1" height="64.2969" id="FactoryContextDataObjectsSqliteDB" rx="2.5" ry="2.5" style="stroke:#181818;stroke-width:0.5;" width="501" x="1463.5" y="494.5"/><ellipse cx="1576.75" cy="510.5" fill="#ADD1B2" rx="11" ry="11" style="stroke:#181818;stroke-width:1.0;"/><path d="M1579.0938,506.1719 C1578.1563,505.7344 1577.5625,505.5938 1576.6875,505.5938 C1574.0625,505.5938 1572.0625,507.6719 1572.0625,510.3906 L1572.0625,511.5156 C1572.0625,514.0938 1574.1719,515.9844 1577.0625,515.9844 C1578.2813,515.9844 1579.4375,515.6875 1580.1875,515.1406 C1580.7656,514.7344 1581.0938,514.2813 1581.0938,513.8906 C1581.0938,513.4375 1580.7031,513.0469 1580.2344,513.0469 C1580.0156,513.0469 1579.8125,513.125 1579.625,513.3125 C1579.1719,513.7969 1579.1719,513.7969 1578.9844,513.8906 C1578.5625,514.1563 1577.875,514.2813 1577.1094,514.2813 C1575.0625,514.2813 1573.7656,513.1875 1573.7656,511.4844 L1573.7656,510.3906 C1573.7656,508.6094 1575.0156,507.2969 1576.75,507.2969 C1577.3281,507.2969 1577.9375,507.4531 1578.4063,507.7031 C1578.8906,507.9844 1579.0625,508.2031 1579.1563,508.6094 C1579.2188,509.0156 1579.25,509.1406 1579.3906,509.2656 C1579.5313,509.4063 1579.7656,509.5156 1579.9844,509.5156 C1580.25,509.5156 1580.5156,509.375 1580.6875,509.1563 C1580.7969,509 1580.8281,508.8125 1580.8281,508.3906 L1580.8281,506.9688 C1580.8281,506.5313 1580.8125,506.4063 1580.7188,506.25 C1580.5625,505.9844 1580.2813,505.8438 1579.9844,505.8438 C1579.6875,505.8438 1579.4844,505.9375 1579.2656,506.25 L1579.0938,506.1719 Z " fill="#000000"/><text fill="#000000" font-family="sans-serif" font-size="14" lengthAdjust="spacing" textLength="266" x="1597.25" y="515.3467">FactoryContextDataObjectsSqliteDB</text><line style="stroke:#181818;stroke-width:0.5;" x1="1464.5" x2="1963.5" y1="526.5" y2="526.5"/><line style="stroke:#181818;stroke-width:0.5;" x1="1464.5" x2="1963.5" y1="534.5" y2="534.5"/><text fill="#000000" font-family="sans-serif" font-size="14" lengthAdjust="spacing" textLength="489" x="1469.5" y="551.4951">public ContextDataObjectsSqliteDB CreateDbContext(string[] args)</text></g><!--class ContextDataObjectsSqliteDB--><g id="elem_ContextDataObjectsSqliteDB"><rect codeLine="22" fill="#F1F1F1" height="80.5938" id="ContextDataObjectsSqliteDB" rx="2.5" ry="2.5" style="stroke:#181818;stroke-width:0.5;" width="850" x="578" y="486"/><ellipse cx="892.75" cy="502" fill="#ADD1B2" rx="11" ry="11" style="stroke:#181818;stroke-width:1.0;"/><path d="M895.0938,497.6719 C894.1563,497.2344 893.5625,497.0938 892.6875,497.0938 C890.0625,497.0938 888.0625,499.1719 888.0625,501.8906 L888.0625,503.0156 C888.0625,505.5938 890.1719,507.4844 893.0625,507.4844 C894.2813,507.4844 895.4375,507.1875 896.1875,506.6406 C896.7656,506.2344 897.0938,505.7813 897.0938,505.3906 C897.0938,504.9375 896.7031,504.5469 896.2344,504.5469 C896.0156,504.5469 895.8125,504.625 895.625,504.8125 C895.1719,505.2969 895.1719,505.2969 894.9844,505.3906 C894.5625,505.6563 893.875,505.7813 893.1094,505.7813 C891.0625,505.7813 889.7656,504.6875 889.7656,502.9844 L889.7656,501.8906 C889.7656,500.1094 891.0156,498.7969 892.75,498.7969 C893.3281,498.7969 893.9375,498.9531 894.4063,499.2031 C894.8906,499.4844 895.0625,499.7031 895.1563,500.1094 C895.2188,500.5156 895.25,500.6406 895.3906,500.7656 C895.5313,500.9063 895.7656,501.0156 895.9844,501.0156 C896.25,501.0156 896.5156,500.875 896.6875,500.6563 C896.7969,500.5 896.8281,500.3125 896.8281,499.8906 L896.8281,498.4688 C896.8281,498.0313 896.8125,497.9063 896.7188,497.75 C896.5625,497.4844 896.2813,497.3438 895.9844,497.3438 C895.6875,497.3438 895.4844,497.4375 895.2656,497.75 L895.0938,497.6719 Z " fill="#000000"/><text fill="#000000" font-family="sans-serif" font-size="14" lengthAdjust="spacing" textLength="212" x="913.25" y="506.8467">ContextDataObjectsSqliteDB</text><line style="stroke:#181818;stroke-width:0.5;" x1="579" x2="1427" y1="518" y2="518"/><text fill="#000000" font-family="sans-serif" font-size="14" lengthAdjust="spacing" textLength="413" x="584" y="534.9951">public DbSet&lt;ProductMDAL&gt; ProductsMDAL { get; set; }</text><line style="stroke:#181818;stroke-width:0.5;" x1="579" x2="1427" y1="542.2969" y2="542.2969"/><text fill="#000000" font-family="sans-serif" font-size="14" lengthAdjust="spacing" textLength="838" x="584" y="559.292">public ContextDataObjectsSqliteDB(DbContextOptions&lt;ContextDataObjectsSqliteDB&gt; options) : base(options) { }</text></g><!--class ProductMDAL--><g id="elem_ProductMDAL"><rect codeLine="28" fill="#F1F1F1" height="178.375" id="ProductMDAL" rx="2.5" ry="2.5" style="stroke:#181818;stroke-width:0.5;" width="403" x="70.5" y="437.5"/><ellipse cx="219.25" cy="453.5" fill="#ADD1B2" rx="11" ry="11" style="stroke:#181818;stroke-width:1.0;"/><path d="M221.5938,449.1719 C220.6563,448.7344 220.0625,448.5938 219.1875,448.5938 C216.5625,448.5938 214.5625,450.6719 214.5625,453.3906 L214.5625,454.5156 C214.5625,457.0938 216.6719,458.9844 219.5625,458.9844 C220.7813,458.9844 221.9375,458.6875 222.6875,458.1406 C223.2656,457.7344 223.5938,457.2813 223.5938,456.8906 C223.5938,456.4375 223.2031,456.0469 222.7344,456.0469 C222.5156,456.0469 222.3125,456.125 222.125,456.3125 C221.6719,456.7969 221.6719,456.7969 221.4844,456.8906 C221.0625,457.1563 220.375,457.2813 219.6094,457.2813 C217.5625,457.2813 216.2656,456.1875 216.2656,454.4844 L216.2656,453.3906 C216.2656,451.6094 217.5156,450.2969 219.25,450.2969 C219.8281,450.2969 220.4375,450.4531 220.9063,450.7031 C221.3906,450.9844 221.5625,451.2031 221.6563,451.6094 C221.7188,452.0156 221.75,452.1406 221.8906,452.2656 C222.0313,452.4063 222.2656,452.5156 222.4844,452.5156 C222.75,452.5156 223.0156,452.375 223.1875,452.1563 C223.2969,452 223.3281,451.8125 223.3281,451.3906 L223.3281,449.9688 C223.3281,449.5313 223.3125,449.4063 223.2188,449.25 C223.0625,448.9844 222.7813,448.8438 222.4844,448.8438 C222.1875,448.8438 221.9844,448.9375 221.7656,449.25 L221.5938,449.1719 Z " fill="#000000"/><text fill="#000000" font-family="sans-serif" font-size="14" lengthAdjust="spacing" textLength="97" x="239.75" y="458.3467">ProductMDAL</text><line style="stroke:#181818;stroke-width:0.5;" x1="71.5" x2="472.5" y1="469.5" y2="469.5"/><text fill="#000000" font-family="sans-serif" font-size="14" lengthAdjust="spacing" textLength="274" x="76.5" y="486.4951">public int ProductMDALId { get; set; }</text><text fill="#000000" font-family="sans-serif" font-size="14" lengthAdjust="spacing" textLength="323" x="76.5" y="502.792">public string MDAL_Product_Tag { get; set; }</text><text fill="#000000" font-family="sans-serif" font-size="14" lengthAdjust="spacing" textLength="391" x="76.5" y="519.0889">public int MDAL_Product_PurchasedCount { get; set; }</text><text fill="#000000" font-family="sans-serif" font-size="14" lengthAdjust="spacing" textLength="374" x="76.5" y="535.3857">public string MDAL_Product_ImagePath { get; set; }</text><text fill="#000000" font-family="sans-serif" font-size="14" lengthAdjust="spacing" textLength="338" x="76.5" y="551.6826">public string MDAL_Product_Name { get; set; }</text><text fill="#000000" font-family="sans-serif" font-size="14" lengthAdjust="spacing" textLength="388" x="76.5" y="567.9795">public string MDAL_Product_Descriptiont { get; set; }</text><text fill="#000000" font-family="sans-serif" font-size="14" lengthAdjust="spacing" textLength="340" x="76.5" y="584.2764">public double MDAL_Product_Price { get; set; }</text><text fill="#000000" font-family="sans-serif" font-size="14" lengthAdjust="spacing" textLength="377" x="76.5" y="600.5732">public bool MDAL_Product_IsAvailability { get; set; }</text><line style="stroke:#181818;stroke-width:0.5;" x1="71.5" x2="472.5" y1="607.875" y2="607.875"/></g><!--reverse link IDesignTimeDbContextFactory to FactoryContextDataObjectsSqliteDB--><g id="link_IDesignTimeDbContextFactory_FactoryContextDataObjectsSqliteDB"><path codeLine="5" d="M1552.8985,207.2221 C1587.8485,276.2761 1663.35,425.437 1698.27,494.417 " fill="none" id="IDesignTimeDbContextFactory-backto-FactoryContextDataObjectsSqliteDB" style="stroke:#181818;stroke-width:1.0;"/><polygon fill="none" points="1544.77,191.162,1547.5451,209.9316,1558.2518,204.5127,1544.77,191.162" style="stroke:#181818;stroke-width:1.0;"/></g><!--reverse link DbContext to ContextDataObjectsSqliteDB--><g id="link_DbContext_ContextDataObjectsSqliteDB"><path codeLine="18" d="M1167.2563,199.2187 C1136.5663,260.1827 1061.31,409.668 1022.89,485.993 " fill="none" id="DbContext-backto-ContextDataObjectsSqliteDB" style="stroke:#181818;stroke-width:1.0;"/><polygon fill="none" points="1175.35,183.141,1161.8971,196.5208,1172.6155,201.9166,1175.35,183.141" style="stroke:#181818;stroke-width:1.0;"/></g><!--SRC=[hLJRJi9047tlLymZFj0Fq8O4g2GaeaHyCyPCjqDPBLtS7L22_BjJMYzKhaeVkjtid9bppantWkeP4uAmDI1cdIMkRRAC56kJGH3SoXTcIKgDXhVmbfxNqyeQPuRiNsQiUTwnEAPNOv_Rnf8VajD9vdUBzKwFAOma7zCRTr2niNC8tkjrwA3ZZZ7nW5UevfKVjlo-DJCTatN-u2NLJ7u9AHE4o7WJFGaXLvo7BS_hof4TeYBuBp6H1_9Cfb6g5Mol2MrBoD_mccChjjq_0Dh4dKcAt2QLedCdarbGEo6zVMtyH1_JhLrjAkmujEZYI0FtELUQ5aOoue6WuwdYdYHhGBbn-GuMa11VWCjVI-yGisjVd6yc-G_ZWksn3J15p1cSGuIEQb_xXPJR8RbdOagT_uFuxu7G6SEFW6wyhaQwNW4KOm5vy6C9VBp3f0BRL6ODqfzQDH8nSTjCvMmtUbFDxbXkdpxow0_OQncVFy3a3b1MhypVnpWsib95ijLgNzd8cBIYqpLdg5ECj8p3l0fVVW00]--></g></svg>